<svg width="52" height="52" viewBox="0 0 52 52" fill="none" xmlns="http://www.w3.org/2000/svg">
<g filter="url(#filter0_d_343_46)">
<rect width="51.567" height="51.048" rx="25.524" fill="#FAF9F9" fill-opacity="0.4" shape-rendering="crispEdges"/>
<rect x="0.346142" y="0.346142" width="50.8748" height="50.3557" rx="25.1779" stroke="#FAF9F9" stroke-width="0.692285" shape-rendering="crispEdges"/>
<path d="M37.7213 22.3742C37.7154 20.8971 37.1163 19.8799 36.1308 18.7317C36.4653 17.4189 35.7339 15.6843 35.2048 14.4297C35.1534 14.3105 35.0745 14.2035 34.9739 14.1165C34.8733 14.0295 34.7534 13.9646 34.623 13.9264C34.2494 13.8057 32.8349 13.5792 29.9525 15.3406C28.7128 15.0321 27.4339 14.8865 26.152 14.9078C24.8683 14.8862 23.5876 15.0319 22.3462 15.3406C19.3891 13.5389 17.8518 13.8308 17.5422 13.9164C17.4111 13.9562 17.291 14.0229 17.1904 14.1116C17.0898 14.2004 17.0113 14.309 16.9604 14.4297C16.4301 15.6802 16.3219 17.0546 16.6508 18.3652C15.6331 19.5077 15.0905 20.96 15.1242 22.4517C15.1242 28.0178 18.503 29.6987 21.5989 30.2925C21.44 30.659 21.3306 31.0428 21.2733 31.4349C21.2677 31.4767 21.2677 31.519 21.2733 31.5608V33.1007C18.455 33.3222 17.8518 31.7671 17.7931 31.5909C17.7795 31.5499 17.7634 31.5096 17.7451 31.4702C17.2007 30.423 16.2425 29.6189 15.0762 29.2306C14.8412 29.1566 14.5846 29.1735 14.3629 29.2778C14.1412 29.3821 13.9725 29.5652 13.8939 29.7868C13.8153 30.0083 13.8333 30.2502 13.9439 30.4593C14.0546 30.6683 14.2487 30.8274 14.4837 30.9015C15.13 31.1216 15.669 31.5564 15.9996 32.1244C16.3733 33.2668 17.8999 35.0735 21.2627 34.8722V36.3216C21.2627 36.5552 21.3611 36.7792 21.5362 36.9444C21.7114 37.1095 21.949 37.2023 22.1968 37.2023C22.4445 37.2023 22.6821 37.1095 22.8573 36.9444C23.0325 36.7792 23.1309 36.5552 23.1309 36.3216V31.6262C23.2017 31.1134 23.4384 30.6337 23.8088 30.2523C23.9385 30.1378 24.0307 29.9906 24.0743 29.8282C24.118 29.6658 24.1114 29.495 24.0552 29.3361C23.999 29.1771 23.8956 29.0367 23.7573 28.9315C23.619 28.8263 23.4516 28.7607 23.275 28.7425C20.019 28.3852 17.0085 27.3736 17.0085 22.4165C16.9868 21.8181 17.0971 21.222 17.3323 20.6659C17.5675 20.1098 17.9225 19.6057 18.3749 19.1855C18.4966 19.0621 18.5807 18.9099 18.6182 18.7452C18.6558 18.5804 18.6455 18.4092 18.5884 18.2495C18.274 17.388 18.2535 16.4552 18.5297 15.5822C19.6759 15.8262 20.7522 16.3018 21.6843 16.9762C21.8041 17.0509 21.9402 17.0993 22.0825 17.1176C22.2249 17.1359 22.3697 17.1237 22.5063 17.0819C23.6923 16.7415 24.9287 16.5835 26.168 16.6139C27.4056 16.5834 28.6402 16.7415 29.8244 17.0819C29.961 17.124 30.1059 17.1364 30.2483 17.1181C30.3907 17.0998 30.5268 17.0513 30.6464 16.9762C31.5442 16.3276 32.5719 15.8569 33.6676 15.5922C33.9397 16.475 33.9155 17.4155 33.5982 18.2847C33.5459 18.4297 33.5352 18.5852 33.5671 18.7354C33.5989 18.8857 33.6723 19.0253 33.7797 19.1402C34.6633 20.0298 35.1638 21.1978 35.1835 22.4165C35.1835 27.3635 32.0182 28.3902 28.917 28.7425C28.7313 28.762 28.5562 28.8338 28.4145 28.9485C28.2728 29.0633 28.171 29.2157 28.1226 29.3858C28.0742 29.5559 28.0813 29.7359 28.143 29.9021C28.2048 30.0684 28.3182 30.2132 28.4686 30.3177C28.7995 30.5542 29.1839 31.2185 29.1839 32.3307V36.3166C29.1839 36.5502 29.2823 36.7742 29.4575 36.9393C29.6326 37.1045 29.8702 37.1973 30.118 37.1973C30.3657 37.1973 30.6033 37.1045 30.7785 36.9393C30.9537 36.7742 31.0521 36.5502 31.0521 36.3166V32.3307C31.0618 31.6299 30.9258 30.934 30.6517 30.2825C33.1605 29.7792 37.7213 28.1667 37.7213 22.3742Z" fill="white"/>
</g>
<defs>
<filter id="filter0_d_343_46" x="0" y="0" width="51.567" height="51.7404" filterUnits="userSpaceOnUse" color-interpolation-filters="sRGB">
<feFlood flood-opacity="0" result="BackgroundImageFix"/>
<feColorMatrix in="SourceAlpha" type="matrix" values="0 0 0 0 0 0 0 0 0 0 0 0 0 0 0 0 0 0 127 0" result="hardAlpha"/>
<feOffset dy="0.692285"/>
<feComposite in2="hardAlpha" operator="out"/>
<feColorMatrix type="matrix" values="0 0 0 0 0.0431373 0 0 0 0 0.0431373 0 0 0 0 0.0431373 0 0 0 0.5 0"/>
<feBlend mode="normal" in2="BackgroundImageFix" result="effect1_dropShadow_343_46"/>
<feBlend mode="normal" in="SourceGraphic" in2="effect1_dropShadow_343_46" result="shape"/>
</filter>
</defs>
</svg>
