<svg width="20" height="23" viewBox="0 0 20 23" fill="none" xmlns="http://www.w3.org/2000/svg">
<path d="M7.3 17.5C6.57117 17.5 5.94733 17.2405 5.4285 16.7215C4.9095 16.2027 4.65 15.5788 4.65 14.85V2.65C4.65 1.92133 4.9095 1.2975 5.4285 0.7785C5.94733 0.2595 6.57117 0 7.3 0H16.5C17.2287 0 17.8525 0.2595 18.3715 0.7785C18.8905 1.2975 19.15 1.92133 19.15 2.65V14.85C19.15 15.5788 18.8905 16.2027 18.3715 16.7215C17.8525 17.2405 17.2287 17.5 16.5 17.5H7.3ZM2.65 22.15C1.92117 22.15 1.29733 21.8905 0.7785 21.3715C0.2595 20.8525 0 20.2287 0 19.5V5.975C0 5.60833 0.129167 5.29583 0.3875 5.0375C0.645833 4.77917 0.958333 4.65 1.325 4.65C1.69167 4.65 2.00417 4.77917 2.2625 5.0375C2.52083 5.29583 2.65 5.60833 2.65 5.975V19.5H13.175C13.5417 19.5 13.8542 19.6292 14.1125 19.8875C14.3708 20.1458 14.5 20.4583 14.5 20.825C14.5 21.1917 14.3708 21.5042 14.1125 21.7625C13.8542 22.0208 13.5417 22.15 13.175 22.15H2.65Z" fill="#E27821"/>
</svg>
