<svg width="51" height="52" viewBox="0 0 51 52" fill="none" xmlns="http://www.w3.org/2000/svg">
<g filter="url(#filter0_d_9_193)">
<rect width="50.8829" height="50.8829" rx="25.4415" fill="#FAF9F9" fill-opacity="0.4" shape-rendering="crispEdges"/>
<rect x="0.346142" y="0.346142" width="50.1906" height="50.1906" rx="25.0953" stroke="#FAF9F9" stroke-width="0.692285" shape-rendering="crispEdges"/>
<path fill-rule="evenodd" clip-rule="evenodd" d="M16.5425 25.4414C16.5425 20.2571 20.6475 16.0544 25.7112 16.0544C30.7749 16.0544 34.8799 20.2571 34.8799 25.4414C34.8799 30.6257 30.7749 34.8285 25.7112 34.8285C23.9074 34.8285 22.2284 34.2964 20.8118 33.3775C20.5482 33.2065 20.2251 33.1608 19.9261 33.2521L16.8204 34.2011L17.9897 31.3998C18.128 31.0687 18.0998 30.6895 17.9144 30.3836C17.0448 28.9489 16.5425 27.2569 16.5425 25.4414ZM25.7112 13.8457C19.456 13.8457 14.3851 19.0373 14.3851 25.4414C14.3851 27.4714 14.8955 29.3821 15.7924 31.0435L13.9326 35.4988C13.7682 35.8927 13.841 36.3484 14.1196 36.668C14.3981 36.9877 14.832 37.1136 15.2329 36.991L20.0863 35.5082C21.7443 36.4811 23.6657 37.0372 25.7112 37.0372C31.9664 37.0372 37.0373 31.8456 37.0373 25.4414C37.0373 19.0373 31.9664 13.8457 25.7112 13.8457ZM28.1841 27.8516L26.7665 28.8739C26.1025 28.4867 25.3685 27.9462 24.6322 27.1924C23.8668 26.4088 23.2993 25.5997 22.8809 24.8576L23.7818 24.0747C24.1684 23.7387 24.2742 23.1724 24.036 22.714L22.8881 20.5053C22.7336 20.2079 22.4549 19.999 22.1312 19.9379C21.8076 19.8769 21.4745 19.9705 21.2266 20.192L20.8862 20.4961C20.0678 21.2274 19.5838 22.4291 19.985 23.6459C20.4009 24.9073 21.2884 26.8926 23.1068 28.7542C25.063 30.757 27.0502 31.5458 28.2122 31.8521C29.1485 32.0988 30.0345 31.7681 30.6589 31.2473L31.2969 30.715C31.5698 30.4874 31.7171 30.1376 31.6914 29.7781C31.6656 29.4187 31.4701 29.0947 31.1677 28.9101L29.3573 27.8058C28.9917 27.5828 28.5322 27.6007 28.1841 27.8516Z" fill="#FAF9F9"/>
</g>
<defs>
<filter id="filter0_d_9_193" x="0" y="0" width="50.8829" height="51.5751" filterUnits="userSpaceOnUse" color-interpolation-filters="sRGB">
<feFlood flood-opacity="0" result="BackgroundImageFix"/>
<feColorMatrix in="SourceAlpha" type="matrix" values="0 0 0 0 0 0 0 0 0 0 0 0 0 0 0 0 0 0 127 0" result="hardAlpha"/>
<feOffset dy="0.692285"/>
<feComposite in2="hardAlpha" operator="out"/>
<feColorMatrix type="matrix" values="0 0 0 0 0.0431373 0 0 0 0 0.0431373 0 0 0 0 0.0431373 0 0 0 0.5 0"/>
<feBlend mode="normal" in2="BackgroundImageFix" result="effect1_dropShadow_9_193"/>
<feBlend mode="normal" in="SourceGraphic" in2="effect1_dropShadow_9_193" result="shape"/>
</filter>
</defs>
</svg>
