<svg width="182" height="60" viewBox="0 0 182 60" fill="none" xmlns="http://www.w3.org/2000/svg">
<path d="M80.904 58.04C79.976 58.04 79.192 57.72 78.552 57.08C77.944 56.44 77.64 55.656 77.64 54.728V38.984C77.64 37.096 76.6 36.152 74.52 36.152H70.92V33.368H74.52C76.6 33.368 77.64 32.424 77.64 30.536V14.792C77.64 13.864 77.944 13.08 78.552 12.44C79.192 11.8 79.976 11.48 80.904 11.48H88.104V13.976H81.72C80.856 13.976 80.424 14.456 80.424 15.416V30.632C80.424 31.816 80.12 32.76 79.512 33.464C78.936 34.136 78.072 34.472 76.92 34.472H76.776V35.048H76.92C78.072 35.048 78.936 35.4 79.512 36.104C80.12 36.776 80.424 37.704 80.424 38.888V54.104C80.424 55.064 80.856 55.544 81.72 55.544H88.104V58.04H80.904ZM97.9815 47V13.4H100.861V33.656H101.438L113.39 23.672H117.614L103.789 35.048L117.997 47H113.822L101.438 36.488H100.861V47H97.9815ZM119.454 47V23.672H122.238V26.744H122.814C123.294 25.88 124.062 25.08 125.118 24.344C126.174 23.576 127.678 23.192 129.63 23.192C131.518 23.192 133.038 23.624 134.19 24.488C135.374 25.352 136.222 26.392 136.734 27.608H137.31C137.854 26.392 138.702 25.352 139.854 24.488C141.006 23.624 142.622 23.192 144.702 23.192C146.302 23.192 147.694 23.528 148.878 24.2C150.062 24.84 150.99 25.752 151.662 26.936C152.334 28.088 152.67 29.448 152.67 31.016V47H149.79V31.304C149.79 29.64 149.278 28.312 148.254 27.32C147.262 26.296 145.854 25.784 144.03 25.784C142.174 25.784 140.622 26.392 139.374 27.608C138.126 28.792 137.502 30.536 137.502 32.84V47H134.622V31.304C134.622 29.64 134.11 28.312 133.086 27.32C132.094 26.296 130.686 25.784 128.862 25.784C127.006 25.784 125.454 26.392 124.206 27.608C122.958 28.792 122.334 30.536 122.334 32.84V47H119.454ZM162.276 58.04V55.544H168.66C169.524 55.544 169.956 55.064 169.956 54.104V38.888C169.956 37.704 170.244 36.776 170.82 36.104C171.428 35.4 172.308 35.048 173.46 35.048H173.604V34.472H173.46C172.308 34.472 171.428 34.136 170.82 33.464C170.244 32.76 169.956 31.816 169.956 30.632V15.416C169.956 14.456 169.524 13.976 168.66 13.976H162.276V11.48H169.476C170.404 11.48 171.172 11.8 171.78 12.44C172.42 13.08 172.74 13.864 172.74 14.792V30.536C172.74 32.424 173.78 33.368 175.86 33.368H179.46V36.152H175.86C173.78 36.152 172.74 37.096 172.74 38.984V54.728C172.74 55.656 172.42 56.44 171.78 57.08C171.172 57.72 170.404 58.04 169.476 58.04H162.276Z" fill="white"/>
<path d="M30 1.90481e-07L38.1027 21.8973L60 30L38.1027 38.1027L30 60L21.8973 38.1027L-1.90481e-07 30L21.8973 21.8973L30 1.90481e-07Z" fill="#E27821"/>
</svg>
