<svg width="51" height="52" viewBox="0 0 51 52" fill="none" xmlns="http://www.w3.org/2000/svg">
<g filter="url(#filter0_d_9_186)">
<rect width="50.8829" height="50.8828" rx="25.4414" fill="#FAF9F9" fill-opacity="0.4" shape-rendering="crispEdges"/>
<rect x="0.346142" y="0.346142" width="50.1906" height="50.1906" rx="25.0953" stroke="#FAF9F9" stroke-width="0.692285" shape-rendering="crispEdges"/>
<path fill-rule="evenodd" clip-rule="evenodd" d="M15.025 24.7593V13.8457H19.7419C22.3471 13.8457 24.4588 16.2888 24.4588 19.3025C24.4588 22.3163 22.3471 24.7593 19.7419 24.7593C22.3471 24.7593 24.4588 27.2023 24.4588 30.2161C24.4588 33.2299 22.3471 35.6729 19.7419 35.6729H15.025V24.7593Z" stroke="#FAF9F9" stroke-width="2.76914" stroke-linecap="round" stroke-linejoin="round"/>
<path fill-rule="evenodd" clip-rule="evenodd" d="M37.0372 30.2161C37.0372 27.2023 34.9255 24.7593 32.3203 24.7593C29.7152 24.7593 27.6034 27.2023 27.6034 30.2161H37.0372Z" stroke="#FAF9F9" stroke-width="2.76914" stroke-linecap="round" stroke-linejoin="round"/>
<path d="M15.025 23.3949C14.3737 23.3949 13.8458 24.0057 13.8458 24.7591C13.8458 25.5126 14.3737 26.1234 15.025 26.1234V23.3949ZM19.7419 26.1234C20.3932 26.1234 20.9212 25.5126 20.9212 24.7591C20.9212 24.0057 20.3932 23.3949 19.7419 23.3949V26.1234ZM28.7827 30.216C28.7827 29.4626 28.2547 28.8518 27.6035 28.8518C26.9522 28.8518 26.4242 29.4626 26.4242 30.216H28.7827ZM36.715 34.7633C37.1493 34.2018 37.1076 33.3394 36.6222 32.837C36.1368 32.3346 35.3914 32.3828 34.9571 32.9444L36.715 34.7633ZM35.465 22.4855C36.1162 22.4855 36.6442 21.8747 36.6442 21.1213C36.6442 20.3679 36.1162 19.7571 35.465 19.7571V22.4855ZM29.1758 19.7571C28.5245 19.7571 27.9965 20.3679 27.9965 21.1213C27.9965 21.8747 28.5245 22.4855 29.1758 22.4855V19.7571ZM15.025 26.1234H19.7419V23.3949H15.025V26.1234ZM26.4242 30.216C26.4242 33.044 27.9329 35.5787 30.2165 36.5879L31.058 34.039C29.6879 33.4335 28.7827 31.9127 28.7827 30.216H26.4242ZM30.2165 36.5879C32.5001 37.5968 35.0851 36.8711 36.715 34.7633L34.9571 32.9444C33.9793 34.2091 32.4282 34.6445 31.058 34.039L30.2165 36.5879ZM35.465 19.7571H29.1758V22.4855H35.465V19.7571Z" fill="#FAF9F9"/>
</g>
<defs>
<filter id="filter0_d_9_186" x="0" y="0" width="50.8829" height="51.5751" filterUnits="userSpaceOnUse" color-interpolation-filters="sRGB">
<feFlood flood-opacity="0" result="BackgroundImageFix"/>
<feColorMatrix in="SourceAlpha" type="matrix" values="0 0 0 0 0 0 0 0 0 0 0 0 0 0 0 0 0 0 127 0" result="hardAlpha"/>
<feOffset dy="0.692285"/>
<feComposite in2="hardAlpha" operator="out"/>
<feColorMatrix type="matrix" values="0 0 0 0 0.0431373 0 0 0 0 0.0431373 0 0 0 0 0.0431373 0 0 0 0.5 0"/>
<feBlend mode="normal" in2="BackgroundImageFix" result="effect1_dropShadow_9_186"/>
<feBlend mode="normal" in="SourceGraphic" in2="effect1_dropShadow_9_186" result="shape"/>
</filter>
</defs>
</svg>
